<mxfile host="app.diagrams.net" modified="2023-12-11T12:13:53.262Z" agent="Mozilla/5.0 (X11; Linux x86_64) AppleWebKit/537.36 (KHTML, like Gecko) Chrome/118.0.0.0 Safari/537.36" etag="5QQ3rur7H5yB2G_QeY3e" version="22.1.7" type="github">
  <diagram id="R2lEEEUBdFMjLlhIrx00" name="Page-1">
    <mxGraphModel dx="880" dy="453" grid="1" gridSize="10" guides="1" tooltips="1" connect="1" arrows="1" fold="1" page="1" pageScale="1" pageWidth="850" pageHeight="1100" math="0" shadow="0" extFonts="Permanent Marker^https://fonts.googleapis.com/css?family=Permanent+Marker">
      <root>
        <mxCell id="0" />
        <mxCell id="1" parent="0" />
        <mxCell id="T8hTjG9_eY_Ks6QSFPCh-1" value="&lt;h2 style=&quot;line-height: 1.38; margin-top: 18pt; margin-bottom: 6pt; font-size: 11px;&quot; dir=&quot;ltr&quot;&gt;&lt;p style=&quot;font-size: 20px; line-height: 1.38; margin-top: 0pt; margin-bottom: 10pt;&quot; dir=&quot;ltr&quot;&gt;&lt;/p&gt;&lt;p style=&quot;font-size: 20px; line-height: 1.38; margin-top: 0pt; margin-bottom: 10pt;&quot; dir=&quot;ltr&quot;&gt;&lt;/p&gt;&lt;div style=&quot;font-size: 20px;&quot;&gt;&lt;/div&gt;&lt;span style=&quot;font-family: Roboto, sans-serif; background-color: transparent; font-weight: 400; font-variant-numeric: normal; font-variant-east-asian: normal; font-variant-alternates: normal; font-variant-position: normal; vertical-align: baseline;&quot;&gt;&lt;font style=&quot;font-size: 11px;&quot;&gt;í ½í³„ Application de gestion de caisse unifiÃ©e Butiki&lt;/font&gt;&lt;/span&gt;&lt;/h2&gt;&lt;div&gt;&lt;span style=&quot;font-family: Roboto, sans-serif; background-color: transparent; font-weight: 400; font-variant-numeric: normal; font-variant-east-asian: normal; font-variant-alternates: normal; font-variant-position: normal; vertical-align: baseline;&quot;&gt;&lt;font style=&quot;font-size: 11px;&quot;&gt;vendeur&lt;/font&gt;&lt;/span&gt;&lt;/div&gt;&lt;div&gt;&lt;font face=&quot;Roboto, sans-serif&quot;&gt;&lt;span style=&quot;font-size: 11px;&quot;&gt;produites id&lt;/span&gt;&lt;/font&gt;&lt;/div&gt;&lt;div&gt;&lt;font face=&quot;Roboto, sans-serif&quot;&gt;&lt;span style=&quot;font-size: 11px;&quot;&gt;date, temps&lt;/span&gt;&lt;/font&gt;&lt;/div&gt;&lt;div&gt;&lt;font face=&quot;Roboto, sans-serif&quot;&gt;&lt;span style=&quot;font-size: 11px;&quot;&gt;&lt;br&gt;&lt;/span&gt;&lt;/font&gt;&lt;/div&gt;&lt;font style=&quot;font-size: 11px;&quot;&gt;&lt;span id=&quot;docs-internal-guid-3a71d855-7fff-5446-f032-a421c3bb44b8&quot;&gt;&lt;/span&gt;&lt;/font&gt;" style="shape=note;whiteSpace=wrap;html=1;backgroundOutline=1;darkOpacity=0.05;" vertex="1" parent="1">
          <mxGeometry x="220" y="80" width="260" height="160" as="geometry" />
        </mxCell>
      </root>
    </mxGraphModel>
  </diagram>
</mxfile>
